<?xml version="1.0" encoding="UTF-8"?>
<svg xmlns="http://www.w3.org/2000/svg" width="36.0" height="36.0" viewBox="0 0 16.0 16.0">
  <g>
    <path d="M9,1h1v1h-1z  " fill="#38342A" />
    <path d="M8,2h1v1h-1z"   fill="#38342A" />
    <path d="M9,2h1v1h-1z"   fill="#DBD0B4" />
    <path d="M10,2h1v1h-1z"  fill="#38342A" />
    <path d="M8,3h1v1h-1z"   fill="#38342A" />
    <path d="M9,3h1v1h-1z"   fill="#C6BCA5" />
    <path d="M10,3h1v1h-1z"  fill="#DBD0B4" />
    <path d="M11,3h1v1h-1z"  fill="#38342A" />
    <path d="M7,4h1v1h-1z"   fill="#38342A" />
    <path d="M8,4h1v1h-1z"   fill="#DBD0B4" />
    <path d="M9,4h1v1h-1z"   fill="#38342A" />
    <path d="M10,4h1v1h-1z"  fill="#BCB29C" />
    <path d="M11,4h1v1h-1z"  fill="#DBD0B4" />
    <path d="M12,4h1v1h-1z"  fill="#38342A" />
    <path d="M6,5h1v1h-1z"   fill="#38342A" />
    <path d="M7,5h1v1h-1z"   fill="#C6BCA5" />
    <path d="M8,5h1v1h-1z"   fill="#DBD0B4" />
    <path d="M9,5h1v1h-1z"   fill="#DBD0B4" />
    <path d="M10,5h1v1h-1z"  fill="#38342A" />
    <path d="M11,5h1v1h-1z"  fill="#BCB29C" />
    <path d="M12,5h1v1h-1z"  fill="#DBD0B4" />
    <path d="M13,5h1v1h-1z"  fill="#38342A" />
    <path d="M5,6h1v1h-1z"   fill="#38342A" />
    <path d="M6,6h1v1h-1z"   fill="#DBD0B4" />
    <path d="M7,6h1v1h-1z"   fill="#DBD0B4" />
    <path d="M8,6h1v1h-1z"   fill="#C6BCA5" />
    <path d="M9,6h1v1h-1z"   fill="#DBD0B4" />
    <path d="M10,6h1v1h-1z"  fill="#DBD0B4" />
    <path d="M11,6h1v1h-1z"  fill="#38342A" />
    <path d="M12,6h1v1h-1z"  fill="#BCB29C" />
    <path d="M13,6h1v1h-1z"  fill="#38342A" />
    <path d="M14,6h1v1h-1z"  fill="#38342A" />
    <path d="M4,7h1v1h-1z"   fill="#38342A" />
    <path d="M5,7h1v1h-1z"   fill="#DBD0B4" />
    <path d="M6,7h1v1h-1z"   fill="#DBD0B4" />
    <path d="M7,7h1v1h-1z"   fill="#DBD0B4" />
    <path d="M8,7h1v1h-1z"   fill="#DBD0B4" />
    <path d="M9,7h1v1h-1z"   fill="#C6BCA5" />
    <path d="M10,7h1v1h-1z"  fill="#C6BCA5" />
    <path d="M11,7h1v1h-1z"  fill="#BCB29C" />
    <path d="M12,7h1v1h-1z"  fill="#38342A" />
    <path d="M13,7h1v1h-1z"  fill="#807A6D" />
    <path d="M14,7h1v1h-1z"  fill="#38342A" />
    <path d="M3,8h1v1h-1z"   fill="#38342A" />
    <path d="M4,8h1v1h-1z"   fill="#DBD0B4" />
    <path d="M5,8h1v1h-1z"   fill="#DBD0B4" />
    <path d="M6,8h1v1h-1z"   fill="#C6BCA5" />
    <path d="M7,8h1v1h-1z"   fill="#DBD0B4" />
    <path d="M8,8h1v1h-1z"   fill="#DBD0B4" />
    <path d="M9,8h1v1h-1z"   fill="#DBD0B4" />
    <path d="M10,8h1v1h-1z"  fill="#BCB29C" />
    <path d="M11,8h1v1h-1z"  fill="#BCB29C" />
    <path d="M12,8h1v1h-1z"  fill="#38342A" />
    <path d="M13,8h1v1h-1z"  fill="#38342A" />
    <path d="M2,9h1v1h-1z"   fill="#38342A" />
    <path d="M3,9h1v1h-1z"   fill="#AEA694" />
    <path d="M4,9h1v1h-1z"   fill="#DBD0B4" />
    <path d="M5,9h1v1h-1z"   fill="#DBD0B4" />
    <path d="M6,9h1v1h-1z"   fill="#DBD0B4" />
    <path d="M7,9h1v1h-1z"   fill="#C6BCA5" />
    <path d="M8,9h1v1h-1z"   fill="#C6BCA5" />
    <path d="M9,9h1v1h-1z"   fill="#DBD0B4" />
    <path d="M10,9h1v1h-1z"  fill="#BCB29C" />
    <path d="M11,9h1v1h-1z"  fill="#38342A" />
    <path d="M2,10h1v1h-1z"  fill="#38342A" />
    <path d="M3,10h1v1h-1z"  fill="#9A927E" />
    <path d="M4,10h1v1h-1z"  fill="#AEA694" />
    <path d="M5,10h1v1h-1z"  fill="#DBD0B4" />
    <path d="M6,10h1v1h-1z"  fill="#DBD0B4" />
    <path d="M7,10h1v1h-1z"  fill="#DBD0B4" />
    <path d="M8,10h1v1h-1z"  fill="#BCB29C" />
    <path d="M9,10h1v1h-1z"  fill="#BCB29C" />
    <path d="M10,10h1v1h-1z" fill="#38342A" />
    <path d="M3,11h1v1h-1z"  fill="#38342A" />
    <path d="M4,11h1v1h-1z"  fill="#9A927E" />
    <path d="M5,11h1v1h-1z"  fill="#AEA694" />
    <path d="M6,11h1v1h-1z"  fill="#DBD0B4" />
    <path d="M7,11h1v1h-1z"  fill="#DBD0B4" />
    <path d="M8,11h1v1h-1z"  fill="#BCB29C" />
    <path d="M9,11h1v1h-1z"  fill="#38342A" />
    <path d="M4,12h1v1h-1z"  fill="#38342A" />
    <path d="M5,12h1v1h-1z"  fill="#9A927E" />
    <path d="M6,12h1v1h-1z"  fill="#AEA694" />
    <path d="M7,12h1v1h-1z"  fill="#BCB29C" />
    <path d="M8,12h1v1h-1z"  fill="#38342A" />
    <path d="M5,13h1v1h-1z"  fill="#38342A" />
    <path d="M6,13h1v1h-1z"  fill="#9A927E" />
    <path d="M7,13h1v1h-1z"  fill="#38342A" />
    <path d="M8,13h1v1h-1z"  fill="#38342A" />
    <path d="M6,14h1v1h-1z"  fill="#38342A" />
    <path d="M7,14h1v1h-1z"  fill="#38342A" />
  </g>
</svg>
